<svg width="270" height="270" viewBox="0 0 270 270" fill="none" xmlns="http://www.w3.org/2000/svg">
<path d="M164.877 164.847C199.653 145.336 243.652 157.418 263.59 191.95L233.585 209.273C198.651 229.443 153.97 217.221 134.166 182.078L164.877 164.847Z" fill="#008EA2"/>
<path d="M152.155 151.169C172.021 116.761 216.02 104.971 250.428 124.837L232.444 155.989C212.577 190.397 168.579 202.187 134.171 182.32L152.155 151.169Z" fill="#00A0B7"/>
<path d="M132.615 147.836C132.615 106.105 166.445 72.2749 208.175 72.2749V107.537C208.175 149.267 174.345 183.097 132.615 183.097V147.836Z" fill="#00B9D3"/>
<path d="M114.788 149.272C94.9217 114.864 106.71 70.8659 141.12 51L159.104 82.1513C178.972 116.56 167.182 160.558 132.774 180.424L114.788 149.272Z" fill="#00D2F0"/>
<path d="M132.615 142.798C132.615 103.85 101.041 72.2749 62.0917 72.2749V112.574C62.0917 151.523 93.6663 183.097 132.615 183.097V142.798Z" fill="#00B9D3"/>
<path d="M117.435 151.169C97.5697 116.761 53.5704 104.971 19.1616 124.837L37.1468 155.989C57.0127 190.397 101.011 202.187 135.419 182.32L117.435 151.169Z" fill="#00A0B7"/>
<path d="M104.711 164.847C69.9363 145.336 25.9372 157.418 6 191.95L36.0041 209.273C70.9391 229.443 115.62 217.221 135.425 182.078L104.711 164.847Z" fill="#008EA2"/>
</svg>
